<?xml version="1.0" encoding="utf-8"?>
<!-- Generator: Adobe Illustrator 18.0.0, SVG Export Plug-In . SVG Version: 6.00 Build 0)  -->
<!DOCTYPE svg PUBLIC "-//W3C//DTD SVG 1.1//EN" "http://www.w3.org/Graphics/SVG/1.1/DTD/svg11.dtd">
<svg version="1.1" id="Livello_1" xmlns="http://www.w3.org/2000/svg" xmlns:xlink="http://www.w3.org/1999/xlink" x="0px" y="0px"
	 viewBox="0 0 610 160" enable-background="new 0 0 610 160" xml:space="preserve">
<g>
	<path fill="#30373A" d="M282.551,72.996v20.698c0,3.234-2.68,5.914-5.914,5.914s-5.914-2.68-5.914-5.914V72.996
		c0-4.898-3.973-8.871-8.871-8.871c-4.897,0-8.871,3.973-8.871,8.871v20.698c0,3.234-2.68,5.914-5.914,5.914
		c-3.234,0-5.914-2.68-5.914-5.914V72.996c0-11.458,9.241-20.699,20.698-20.699c5.822,0,11.089,2.31,14.785,6.191
		c3.789-3.881,8.964-6.191,14.785-6.191c11.459,0,20.698,9.241,20.698,20.699v20.698c0,3.234-2.68,5.914-5.914,5.914
		c-3.234,0-5.914-2.68-5.914-5.914V72.996c0-4.898-3.973-8.871-8.871-8.871C286.525,64.126,282.551,68.099,282.551,72.996z"/>
	<path fill="#30373A" d="M105.122,5C93.483,5,83.134,9.617,75.558,17.38C68.168,9.617,57.632,5,45.994,5
		C23.077,5,4.604,23.48,4.604,46.39v41.39c0,6.467,5.358,11.832,11.826,11.832c6.467,0,11.826-5.365,11.826-11.832V46.39
		c0-9.795,7.944-17.738,17.738-17.738s17.738,7.944,17.738,17.738v41.39c0,6.467,5.358,11.832,11.826,11.832
		c6.467,0,11.826-5.365,11.826-11.832V46.39c0-9.795,7.951-17.738,17.738-17.738c9.795,0,17.745,7.944,17.745,17.738v41.39
		c0,6.467,5.358,11.832,11.826,11.832c2.619,0,5.058-0.882,7.035-2.365c-7.55-10.149-9.414-24.012-3.675-36.265
		c2.091-4.47,5.004-8.305,8.465-11.398V46.39C146.519,23.48,128.038,5,105.122,5z"/>
	<path fill="#30373A" d="M480.208,93.695c0,3.234-2.68,5.914-5.914,5.914c-3.234,0-5.914-2.68-5.914-5.914V31.532
		c0-3.234,2.68-5.914,5.914-5.914c3.234,0,5.914,2.68,5.914,5.914V93.695z"/>
	<path fill="#30373A" d="M346.867,52.298c13.029,0,23.655,10.627,23.655,23.655c0,13.029-10.627,23.655-23.655,23.655
		c-13.03,0-23.655-10.627-23.655-23.655C323.212,62.924,333.838,52.298,346.867,52.298z M346.867,87.781
		c6.56,0,11.828-5.267,11.828-11.828s-5.268-11.828-11.828-11.828c-6.561,0-11.828,5.267-11.828,11.828
		S340.306,87.781,346.867,87.781z"/>
	<path fill="#30373A" d="M406.3,52.301c-4.302,0-8.348,1.161-11.832,3.198V31.53c0-3.236-2.675-5.911-5.911-5.911
		c-3.237,0-5.911,2.675-5.911,5.911v44.425c0,8.51,4.531,15.991,11.299,20.151c3.598,2.227,7.834,3.503,12.355,3.503
		c13.031,0,23.654-10.623,23.654-23.654S419.331,52.301,406.3,52.301z M406.3,87.786c-6.558,0-11.832-5.273-11.832-11.832
		c0-6.558,5.273-11.832,11.832-11.832c6.558,0,11.822,5.273,11.822,11.832C418.123,82.513,412.859,87.786,406.3,87.786z"/>
	<path fill="#30373A" d="M453.934,93.695c0,3.234-2.68,5.914-5.914,5.914c-3.234,0-5.914-2.68-5.914-5.914V58.212
		c0-3.234,2.68-5.914,5.914-5.914c3.234,0,5.914,2.68,5.914,5.914V93.695z"/>
	<g>
		<g>
			<path fill="#30373A" d="M448.02,25.618c-3.283,0-5.915,2.632-5.915,5.914c0,3.283,2.632,5.915,5.915,5.915
				c3.283,0,5.914-2.632,5.914-5.915C453.934,28.25,451.303,25.618,448.02,25.618z"/>
		</g>
	</g>
	<path fill="#30373A" d="M506.052,93.695c0,3.234-2.68,5.914-5.914,5.914c-3.234,0-5.914-2.68-5.914-5.914V58.212
		c0-3.234,2.68-5.914,5.914-5.914c3.234,0,5.914,2.68,5.914,5.914V93.695z"/>
	<g>
		<g>
			<path fill="#30373A" d="M500.138,25.618c-3.283,0-5.915,2.632-5.915,5.914c0,3.283,2.632,5.915,5.915,5.915
				c3.283,0,5.914-2.632,5.914-5.915C506.053,28.25,503.421,25.618,500.138,25.618z"/>
		</g>
	</g>
	<path fill="#30373A" d="M544.357,87.78c0,0-0.168,0-0.254,0c-6.562,0-11.829-5.267-11.829-11.829V64.129h8.872
		c3.231,0,5.914-2.684,5.914-5.914c0-3.238-2.684-5.914-5.914-5.914h-8.872V31.533c0-3.238-2.684-5.914-5.914-5.914
		c-3.238,0-5.914,2.677-5.914,5.914v44.418c0,8.504,4.526,15.988,11.301,20.16c3.598,2.216,7.83,3.498,12.356,3.498
		c0.086,0,0.254,0,0.254,0c3.224,0,5.914-2.684,5.914-5.914C550.272,90.457,547.582,87.78,544.357,87.78z"/>
	<path fill="#30373A" d="M602.263,52.982c-2.857-1.515-6.48-0.402-7.995,2.455l-12.341,23.419l-12.709-23.419
		c-1.515-2.857-5.138-3.97-7.995-2.455c-2.857,1.515-3.97,5.138-2.455,7.995l16.529,30.46l-11.055,20.978
		c-1.515,2.857-0.402,6.48,2.455,7.995c2.857,1.515,6.48,0.402,7.995-2.455l30.026-56.978
		C606.233,58.12,605.12,54.497,602.263,52.982z"/>
	<g>
		<g>
			<path fill="#008D9D" d="M252.828,155c-3.802,0-6.697-1.056-8.689-3.172c-1.99-2.114-2.986-5.117-2.986-9.009
				c0-1.934,0.303-3.66,0.911-5.179c0.608-1.518,1.44-2.801,2.497-3.847c1.057-1.046,2.317-1.839,3.779-2.379
				c1.462-0.54,3.048-0.81,4.757-0.81c0.99,0,1.89,0.073,2.7,0.219c0.809,0.147,1.518,0.315,2.125,0.506
				c0.607,0.191,1.113,0.388,1.518,0.59c0.405,0.202,0.697,0.36,0.877,0.472l-1.518,4.252c-0.72-0.383-1.558-0.709-2.514-0.979
				c-0.956-0.269-2.042-0.405-3.256-0.405c-0.81,0-1.603,0.135-2.379,0.405c-0.776,0.27-1.462,0.704-2.058,1.299
				c-0.596,0.597-1.074,1.366-1.434,2.311c-0.36,0.945-0.54,2.092-0.54,3.442c0,1.08,0.118,2.086,0.354,3.02
				c0.237,0.933,0.619,1.737,1.148,2.413c0.528,0.675,1.22,1.209,2.076,1.602c0.855,0.394,1.889,0.59,3.104,0.59
				c0.764,0,1.45-0.045,2.058-0.135c0.607-0.09,1.147-0.197,1.62-0.32c0.472-0.123,0.888-0.264,1.248-0.422
				c0.36-0.157,0.686-0.304,0.979-0.439l1.45,4.218c-0.742,0.45-1.788,0.855-3.138,1.214C256.169,154.82,254.605,155,252.828,155z"
				/>
			<path fill="#008D9D" d="M266.298,131.145h5.263v23.383h-5.263V131.145z"/>
			<path fill="#008D9D" d="M296.429,131.145v4.488h-7.052v18.895h-5.264v-18.895h-7.052v-4.488H296.429z"/>
			<path fill="#008D9D" d="M311.836,140.736c0.946-1.593,1.846-3.186,2.702-4.778c0.856-1.593,1.644-3.197,2.365-4.813h5.804
				c-1.283,2.52-2.61,4.96-3.982,7.322c-1.372,2.362-2.823,4.736-4.353,7.12v8.941h-5.263v-8.874
				c-1.529-2.384-2.986-4.769-4.369-7.153c-1.384-2.384-2.716-4.836-3.998-7.356h6.107c0.719,1.616,1.494,3.22,2.326,4.813
				C310.004,137.55,310.893,139.143,311.836,140.736z"/>
		</g>
		<g>
			<path fill="#008D9D" d="M163.296,97.403c2.908,0.109,6.321-1.755,9.531-4.986c0.142-0.143,0.094-0.388-0.091-0.466l-5.777-2.453
				c-0.337-0.143-0.725,0.014-0.868,0.351l-3.038,7.156C162.976,97.185,163.1,97.395,163.296,97.403z"/>
			<path fill="#008D9D" d="M159.525,95.802c-2.099-2.016-3.128-5.766-3.034-10.32c0.004-0.201,0.213-0.337,0.398-0.259l5.777,2.452
				c0.337,0.143,0.494,0.532,0.351,0.868l-3.037,7.157C159.904,95.881,159.667,95.938,159.525,95.802z"/>
			<path fill="#008D9D" d="M184.684,80.532L192,83.638c0.254,0.108,0.552-0.023,0.639-0.286c0.856-2.589,1.237-5.236,1.186-7.842
				c-0.004-0.188-0.12-0.356-0.292-0.429l-6.588-2.797c-0.166-0.071-0.352,0.029-0.385,0.206c-0.465,2.447-1.186,4.95-2.13,7.441
				C184.34,80.168,184.451,80.433,184.684,80.532z"/>
			<path fill="#008D9D" d="M170.64,52.305c-4.552-0.088-9.01,1.145-12.838,3.49c-0.196,0.12-0.172,0.417,0.04,0.507l5.47,2.323
				c0.186,0.079,0.402,0.028,0.536-0.123c2.201-2.48,4.559-4.409,6.923-5.664C171.033,52.699,170.935,52.31,170.64,52.305z"/>
			<path fill="#008D9D" d="M186.847,59.184c3.225,3.213,5.435,7.277,6.407,11.659c0.05,0.225-0.181,0.413-0.393,0.323l-5.471-2.322
				c-0.186-0.079-0.299-0.27-0.284-0.472c0.255-3.306,0.004-6.342-0.735-8.915C186.29,59.175,186.638,58.976,186.847,59.184z"/>
			<path fill="#008D9D" d="M171.651,65.791l-6.647-2.822c-0.203-0.086-0.438-0.025-0.569,0.152c-1.44,1.954-2.777,4.177-3.937,6.603
				c-0.117,0.244-0.004,0.539,0.244,0.644l7.596,3.225c0.481,0.204,1.036-0.02,1.241-0.501l2.573-6.06
				C172.356,66.55,172.132,65.995,171.651,65.791z"/>
			<path fill="#008D9D" d="M158.828,73.726c-0.917,2.525-1.57,5.045-1.949,7.477c-0.033,0.215,0.086,0.425,0.287,0.51l6.546,2.779
				c0.481,0.204,1.036-0.02,1.241-0.501l2.584-6.086c0.204-0.481-0.02-1.036-0.501-1.241l-7.571-3.215
				C159.212,73.344,158.92,73.471,158.828,73.726z"/>
			<path fill="#008D9D" d="M168.525,86.536l6.542,2.778c0.2,0.085,0.434,0.026,0.565-0.148c1.47-1.941,2.841-4.161,4.034-6.592
				c0.12-0.244,0.008-0.543-0.242-0.649l-7.576-3.216c-0.481-0.204-1.036,0.02-1.241,0.501l-2.584,6.086
				C167.819,85.777,168.044,86.332,168.525,86.536z"/>
			<path fill="#008D9D" d="M175.224,68.336l-2.573,6.06c-0.204,0.481,0.02,1.036,0.501,1.241l7.587,3.221
				c0.248,0.105,0.538-0.018,0.633-0.271c0.935-2.498,1.614-4.996,2.025-7.414c0.037-0.217-0.083-0.43-0.286-0.516l-6.646-2.822
				C175.984,67.63,175.428,67.855,175.224,68.336z"/>
			<path fill="#008D9D" d="M161.159,61.336l-6.576-2.792c-0.173-0.073-0.374-0.04-0.512,0.088c-1.91,1.774-3.55,3.887-4.818,6.301
				c-0.129,0.245-0.016,0.55,0.238,0.659l7.302,3.1c0.233,0.099,0.501-0.007,0.609-0.236c1.154-2.449,2.464-4.694,3.877-6.7
				C161.383,61.608,161.325,61.406,161.159,61.336z"/>
			<path fill="#008D9D" d="M177.058,54.504c-3.012-0.113-6.566,1.893-9.876,5.341c-0.138,0.144-0.089,0.385,0.094,0.463l5.94,2.522
				c0.337,0.143,0.726-0.014,0.868-0.351l3.217-7.577C177.378,54.721,177.254,54.511,177.058,54.504z"/>
			<path fill="#008D9D" d="M180.828,56.104c2.174,2.088,3.2,6.038,3.018,10.814c-0.008,0.199-0.215,0.332-0.399,0.254l-5.94-2.521
				c-0.337-0.143-0.494-0.532-0.351-0.868l3.215-7.577C180.449,56.025,180.687,55.968,180.828,56.104z"/>
			<path fill="#008D9D" d="M182.767,83.834c-1.182,2.453-2.518,4.7-3.96,6.696c-0.106,0.147-0.049,0.351,0.119,0.422l6.477,2.75
				c0.17,0.072,0.367,0.041,0.505-0.081c1.967-1.749,3.662-3.851,4.984-6.261c0.135-0.245,0.023-0.557-0.234-0.666l-7.283-3.092
				C183.142,83.504,182.876,83.607,182.767,83.834z"/>
			<path fill="#008D9D" d="M155.517,71.776l-7.292-3.096c-0.258-0.109-0.559,0.027-0.642,0.294c-0.814,2.625-1.15,5.304-1.042,7.933
				c0.008,0.184,0.123,0.347,0.292,0.419l6.5,2.76c0.167,0.071,0.354-0.03,0.386-0.209c0.438-2.463,1.126-4.988,2.053-7.505
				C155.86,72.137,155.749,71.874,155.517,71.776z"/>
			<path fill="#008D9D" d="M169.713,99.602c4.356,0.084,8.625-1.046,12.339-3.199c0.202-0.117,0.181-0.42-0.035-0.511l-5.297-2.249
				c-0.184-0.078-0.396-0.029-0.531,0.119c-2.111,2.312-4.358,4.115-6.61,5.309C169.318,99.209,169.418,99.596,169.713,99.602z"/>
			<path fill="#008D9D" d="M153.513,92.725c-3.086-3.075-5.239-6.931-6.271-11.098c-0.056-0.227,0.177-0.422,0.392-0.33l5.298,2.248
				c0.184,0.078,0.296,0.265,0.283,0.464c-0.197,3.124,0.067,5.993,0.772,8.443C154.07,92.736,153.723,92.934,153.513,92.725z"/>
		</g>
	</g>
</g>
</svg>
