<?xml version="1.0" encoding="utf-8"?>
<!-- Generator: Adobe Illustrator 23.0.2, SVG Export Plug-In . SVG Version: 6.00 Build 0)  -->
<svg version="1.1" id="Livello_1" xmlns="http://www.w3.org/2000/svg" xmlns:xlink="http://www.w3.org/1999/xlink" x="0px" y="0px"
	 viewBox="0 0 200 50" style="enable-background:new 0 0 200 50;" xml:space="preserve">
<style type="text/css">
	.st0{fill:#FFFFFF;}
</style>
<g>
	<path class="st0" d="M92.7,22.7v6.7c0,1-0.9,1.9-1.9,1.9c-1,0-1.9-0.9-1.9-1.9v-6.7c0-1.6-1.3-2.9-2.9-2.9c-1.6,0-2.9,1.3-2.9,2.9
		v6.7c0,1-0.9,1.9-1.9,1.9c-1,0-1.9-0.9-1.9-1.9v-6.7c0-3.7,3-6.7,6.7-6.7c1.9,0,3.6,0.7,4.8,2c1.2-1.3,2.9-2,4.8-2
		c3.7,0,6.7,3,6.7,6.7v6.7c0,1-0.9,1.9-1.9,1.9c-1,0-1.9-0.9-1.9-1.9v-6.7c0-1.6-1.3-2.9-2.9-2.9C94,19.8,92.7,21.1,92.7,22.7z"/>
	<path class="st0" d="M35.1,0.7c-3.8,0-7.1,1.5-9.6,4c-2.4-2.5-5.8-4-9.6-4c-7.4,0-13.4,6-13.4,13.4v13.4c0,2.1,1.7,3.8,3.8,3.8
		c2.1,0,3.8-1.7,3.8-3.8V14.1c0-3.2,2.6-5.8,5.8-5.8c3.2,0,5.8,2.6,5.8,5.8v13.4c0,2.1,1.7,3.8,3.8,3.8c2.1,0,3.8-1.7,3.8-3.8V14.1
		c0-3.2,2.6-5.8,5.8-5.8c3.2,0,5.8,2.6,5.8,5.8v13.4c0,2.1,1.7,3.8,3.8,3.8c0.9,0,1.6-0.3,2.3-0.8c-2.5-3.3-3.1-7.8-1.2-11.8
		c0.7-1.5,1.6-2.7,2.7-3.7v-1C48.6,6.7,42.6,0.7,35.1,0.7z"/>
	<path class="st0" d="M156.9,29.4c0,1-0.9,1.9-1.9,1.9c-1,0-1.9-0.9-1.9-1.9V9.3c0-1,0.9-1.9,1.9-1.9c1,0,1.9,0.9,1.9,1.9V29.4z"/>
	<path class="st0" d="M113.6,16c4.2,0,7.7,3.4,7.7,7.7c0,4.2-3.4,7.7-7.7,7.7c-4.2,0-7.7-3.4-7.7-7.7C105.9,19.5,109.4,16,113.6,16z
		 M113.6,27.5c2.1,0,3.8-1.7,3.8-3.8s-1.7-3.8-3.8-3.8c-2.1,0-3.8,1.7-3.8,3.8S111.5,27.5,113.6,27.5z"/>
	<path class="st0" d="M132.9,16c-1.4,0-2.7,0.4-3.8,1V9.3c0-1.1-0.9-1.9-1.9-1.9c-1.1,0-1.9,0.9-1.9,1.9v14.4c0,2.8,1.5,5.2,3.7,6.5
		c1.2,0.7,2.5,1.1,4,1.1c4.2,0,7.7-3.4,7.7-7.7S137.1,16,132.9,16z M132.9,27.5c-2.1,0-3.8-1.7-3.8-3.8c0-2.1,1.7-3.8,3.8-3.8
		c2.1,0,3.8,1.7,3.8,3.8C136.7,25.8,135,27.5,132.9,27.5z"/>
	<path class="st0" d="M148.3,29.4c0,1-0.9,1.9-1.9,1.9c-1,0-1.9-0.9-1.9-1.9V17.9c0-1,0.9-1.9,1.9-1.9c1,0,1.9,0.9,1.9,1.9V29.4z"/>
	<g>
		<g>
			<path class="st0" d="M146.4,7.3c-1.1,0-1.9,0.9-1.9,1.9c0,1.1,0.9,1.9,1.9,1.9c1.1,0,1.9-0.9,1.9-1.9
				C148.3,8.2,147.5,7.3,146.4,7.3z"/>
		</g>
	</g>
	<path class="st0" d="M165.3,29.4c0,1-0.9,1.9-1.9,1.9c-1,0-1.9-0.9-1.9-1.9V17.9c0-1,0.9-1.9,1.9-1.9c1,0,1.9,0.9,1.9,1.9V29.4z"/>
	<g>
		<g>
			<path class="st0" d="M163.3,7.3c-1.1,0-1.9,0.9-1.9,1.9c0,1.1,0.9,1.9,1.9,1.9c1.1,0,1.9-0.9,1.9-1.9
				C165.3,8.2,164.4,7.3,163.3,7.3z"/>
		</g>
	</g>
	<path class="st0" d="M177.7,27.5C177.7,27.5,177.6,27.5,177.7,27.5c-2.2,0-3.9-1.7-3.9-3.8v-3.8h2.9c1,0,1.9-0.9,1.9-1.9
		c0-1.1-0.9-1.9-1.9-1.9h-2.9V9.3c0-1.1-0.9-1.9-1.9-1.9c-1.1,0-1.9,0.9-1.9,1.9v14.4c0,2.8,1.5,5.2,3.7,6.5c1.2,0.7,2.5,1.1,4,1.1
		c0,0,0.1,0,0.1,0c1,0,1.9-0.9,1.9-1.9C179.6,28.4,178.7,27.5,177.7,27.5z"/>
	<path class="st0" d="M196.5,16.2c-0.9-0.5-2.1-0.1-2.6,0.8l-4,7.6l-4.1-7.6c-0.5-0.9-1.7-1.3-2.6-0.8c-0.9,0.5-1.3,1.7-0.8,2.6
		l5.4,9.9l-3.6,6.8c-0.5,0.9-0.1,2.1,0.8,2.6c0.9,0.5,2.1,0.1,2.6-0.8l9.7-18.5C197.8,17.9,197.4,16.7,196.5,16.2z"/>
	<g>
		<g>
			<path class="st0" d="M83.1,49.3c-1.2,0-2.2-0.3-2.8-1c-0.6-0.7-1-1.7-1-2.9c0-0.6,0.1-1.2,0.3-1.7c0.2-0.5,0.5-0.9,0.8-1.2
				c0.3-0.3,0.8-0.6,1.2-0.8c0.5-0.2,1-0.3,1.5-0.3c0.3,0,0.6,0,0.9,0.1c0.3,0,0.5,0.1,0.7,0.2c0.2,0.1,0.4,0.1,0.5,0.2
				c0.1,0.1,0.2,0.1,0.3,0.2L85,43.4c-0.2-0.1-0.5-0.2-0.8-0.3c-0.3-0.1-0.7-0.1-1.1-0.1c-0.3,0-0.5,0-0.8,0.1
				c-0.3,0.1-0.5,0.2-0.7,0.4c-0.2,0.2-0.3,0.4-0.5,0.8c-0.1,0.3-0.2,0.7-0.2,1.1c0,0.4,0,0.7,0.1,1c0.1,0.3,0.2,0.6,0.4,0.8
				c0.2,0.2,0.4,0.4,0.7,0.5c0.3,0.1,0.6,0.2,1,0.2c0.2,0,0.5,0,0.7,0c0.2,0,0.4-0.1,0.5-0.1c0.2,0,0.3-0.1,0.4-0.1
				c0.1-0.1,0.2-0.1,0.3-0.1l0.5,1.4c-0.2,0.1-0.6,0.3-1,0.4C84.2,49.3,83.6,49.3,83.1,49.3z"/>
			<path class="st0" d="M94.5,45.4c0,0.7-0.1,1.2-0.3,1.7c-0.2,0.5-0.5,0.9-0.8,1.2c-0.3,0.3-0.7,0.6-1.2,0.8
				c-0.5,0.2-1,0.3-1.5,0.3c-0.5,0-1-0.1-1.5-0.3c-0.5-0.2-0.9-0.4-1.2-0.8c-0.3-0.3-0.6-0.7-0.8-1.2c-0.2-0.5-0.3-1.1-0.3-1.7
				c0-0.6,0.1-1.2,0.3-1.7c0.2-0.5,0.5-0.9,0.8-1.2c0.3-0.3,0.7-0.6,1.2-0.8c0.5-0.2,0.9-0.3,1.4-0.3c0.5,0,1,0.1,1.5,0.3
				c0.5,0.2,0.9,0.4,1.2,0.8c0.3,0.3,0.6,0.8,0.8,1.2C94.4,44.2,94.5,44.7,94.5,45.4z M88.7,45.4c0,0.4,0,0.7,0.1,1
				c0.1,0.3,0.2,0.6,0.4,0.8c0.2,0.2,0.4,0.4,0.6,0.5c0.2,0.1,0.5,0.2,0.9,0.2c0.3,0,0.6-0.1,0.8-0.2c0.3-0.1,0.5-0.3,0.6-0.5
				c0.2-0.2,0.3-0.5,0.4-0.8c0.1-0.3,0.1-0.6,0.1-1c0-0.4,0-0.7-0.1-1c-0.1-0.3-0.2-0.6-0.4-0.8c-0.2-0.2-0.4-0.4-0.6-0.5
				c-0.3-0.1-0.5-0.2-0.8-0.2c-0.3,0-0.6,0.1-0.9,0.2c-0.2,0.1-0.5,0.3-0.6,0.5c-0.2,0.2-0.3,0.5-0.4,0.8
				C88.7,44.7,88.7,45,88.7,45.4z"/>
			<path class="st0" d="M98.6,41.6c0.1,0.2,0.3,0.5,0.5,0.9c0.2,0.4,0.4,0.7,0.5,1.1c0.2,0.4,0.4,0.8,0.6,1.3
				c0.2,0.4,0.4,0.8,0.5,1.2c0.2-0.4,0.3-0.8,0.5-1.2c0.2-0.4,0.4-0.9,0.6-1.3c0.2-0.4,0.4-0.8,0.5-1.1c0.2-0.4,0.3-0.7,0.5-0.9h1.6
				c0.1,0.5,0.1,1.1,0.2,1.7c0.1,0.6,0.1,1.3,0.2,1.9c0,0.7,0.1,1.4,0.1,2c0,0.7,0.1,1.3,0.1,1.9h-1.7c0-0.7-0.1-1.5-0.1-2.4
				c0-0.9-0.1-1.7-0.2-2.6c-0.1,0.3-0.3,0.6-0.4,1c-0.2,0.4-0.3,0.7-0.5,1.1c-0.2,0.4-0.3,0.7-0.5,1.1c-0.1,0.3-0.3,0.6-0.4,0.9H100
				c-0.1-0.2-0.2-0.5-0.4-0.9c-0.1-0.3-0.3-0.7-0.5-1.1c-0.2-0.4-0.3-0.7-0.5-1.1c-0.2-0.4-0.3-0.7-0.4-1c-0.1,0.9-0.1,1.8-0.2,2.6
				c0,0.9-0.1,1.7-0.1,2.4h-1.7c0-0.6,0.1-1.2,0.1-1.9c0-0.7,0.1-1.4,0.1-2c0-0.7,0.1-1.3,0.2-1.9c0.1-0.6,0.1-1.2,0.2-1.7H98.6z"/>
			<path class="st0" d="M109.4,41.5c1.1,0,2,0.2,2.6,0.6c0.6,0.4,0.9,1,0.9,2c0,0.9-0.3,1.6-0.9,2c-0.6,0.4-1.5,0.6-2.6,0.6h-0.5
				v2.5h-1.7v-7.5c0.4-0.1,0.8-0.1,1.2-0.2C108.8,41.5,109.1,41.5,109.4,41.5z M109.5,43c-0.1,0-0.2,0-0.4,0c-0.1,0-0.2,0-0.3,0v2.2
				h0.5c0.6,0,1-0.1,1.3-0.2c0.3-0.2,0.4-0.5,0.4-0.9c0-0.2,0-0.4-0.1-0.5c-0.1-0.1-0.2-0.3-0.3-0.3c-0.1-0.1-0.3-0.1-0.5-0.2
				C110,43,109.8,43,109.5,43z"/>
			<path class="st0" d="M119.5,49.2c-0.1-0.3-0.2-0.5-0.3-0.8c-0.1-0.3-0.2-0.6-0.3-0.8h-3c-0.1,0.3-0.2,0.6-0.3,0.8
				c-0.1,0.3-0.2,0.5-0.3,0.8h-1.8c0.3-0.8,0.6-1.6,0.8-2.3c0.3-0.7,0.5-1.3,0.8-2c0.2-0.6,0.5-1.2,0.7-1.7c0.2-0.6,0.5-1.1,0.7-1.6
				h1.6c0.2,0.5,0.5,1.1,0.7,1.6c0.2,0.6,0.5,1.1,0.7,1.7c0.2,0.6,0.5,1.3,0.8,2c0.3,0.7,0.5,1.4,0.8,2.3H119.5z M117.4,43.3
				c0,0.1-0.1,0.3-0.2,0.4c-0.1,0.2-0.2,0.4-0.3,0.7c-0.1,0.2-0.2,0.5-0.3,0.8c-0.1,0.3-0.2,0.6-0.4,0.9h2.2
				c-0.1-0.3-0.2-0.6-0.3-0.9c-0.1-0.3-0.2-0.6-0.3-0.8c-0.1-0.2-0.2-0.5-0.3-0.7C117.5,43.6,117.5,43.4,117.4,43.3z"/>
			<path class="st0" d="M128.1,49.2c-0.5-0.9-1-1.7-1.6-2.6c-0.6-0.8-1.2-1.6-1.8-2.4v5H123v-7.6h1.4c0.2,0.2,0.5,0.5,0.8,0.9
				c0.3,0.4,0.6,0.7,0.9,1.1c0.3,0.4,0.6,0.8,0.9,1.2c0.3,0.4,0.6,0.8,0.8,1.2v-4.5h1.7v7.6H128.1z"/>
			<path class="st0" d="M134.9,44.7c0.3-0.5,0.6-1,0.9-1.6c0.3-0.5,0.5-1,0.8-1.6h1.9c-0.4,0.8-0.8,1.6-1.3,2.4
				c-0.4,0.8-0.9,1.5-1.4,2.3v2.9H134v-2.9c-0.5-0.8-1-1.5-1.4-2.3c-0.4-0.8-0.9-1.6-1.3-2.4h2c0.2,0.5,0.5,1,0.8,1.6
				C134.3,43.7,134.6,44.2,134.9,44.7z"/>
		</g>
		<g>
			<path class="st0" d="M54,30.6c0.9,0,2.1-0.6,3.1-1.6c0,0,0-0.1,0-0.2l-1.9-0.8c-0.1,0-0.2,0-0.3,0.1l-1,2.3
				C53.9,30.6,53.9,30.6,54,30.6z"/>
			<path class="st0" d="M52.8,30.1c-0.7-0.7-1-1.9-1-3.3c0-0.1,0.1-0.1,0.1-0.1l1.9,0.8c0.1,0,0.2,0.2,0.1,0.3l-1,2.3
				C52.9,30.2,52.8,30.2,52.8,30.1z"/>
			<path class="st0" d="M60.9,25.2l2.4,1c0.1,0,0.2,0,0.2-0.1c0.3-0.8,0.4-1.7,0.4-2.5c0-0.1,0-0.1-0.1-0.1l-2.1-0.9
				c-0.1,0-0.1,0-0.1,0.1c-0.2,0.8-0.4,1.6-0.7,2.4C60.8,25.1,60.9,25.1,60.9,25.2z"/>
			<path class="st0" d="M56.4,16c-1.5,0-2.9,0.4-4.2,1.1c-0.1,0-0.1,0.1,0,0.2l1.8,0.8c0.1,0,0.1,0,0.2,0c0.7-0.8,1.5-1.4,2.2-1.8
				C56.5,16.1,56.5,16,56.4,16z"/>
			<path class="st0" d="M61.6,18.2c1,1,1.8,2.4,2.1,3.8c0,0.1-0.1,0.1-0.1,0.1l-1.8-0.8c-0.1,0-0.1-0.1-0.1-0.2
				c0.1-1.1,0-2.1-0.2-2.9C61.5,18.2,61.6,18.2,61.6,18.2z"/>
			<path class="st0" d="M56.7,20.4l-2.2-0.9c-0.1,0-0.1,0-0.2,0c-0.5,0.6-0.9,1.4-1.3,2.1c0,0.1,0,0.2,0.1,0.2l2.5,1
				c0.2,0.1,0.3,0,0.4-0.2l0.8-2C56.9,20.6,56.9,20.5,56.7,20.4z"/>
			<path class="st0" d="M52.6,23c-0.3,0.8-0.5,1.6-0.6,2.4c0,0.1,0,0.1,0.1,0.2l2.1,0.9c0.2,0.1,0.3,0,0.4-0.2l0.8-2
				c0.1-0.2,0-0.3-0.2-0.4l-2.5-1C52.7,22.8,52.6,22.9,52.6,23z"/>
			<path class="st0" d="M55.7,27.1l2.1,0.9c0.1,0,0.1,0,0.2,0c0.5-0.6,0.9-1.4,1.3-2.1c0-0.1,0-0.2-0.1-0.2l-2.5-1
				c-0.2-0.1-0.3,0-0.4,0.2l-0.8,2C55.5,26.9,55.5,27.1,55.7,27.1z"/>
			<path class="st0" d="M57.9,21.2l-0.8,2c-0.1,0.2,0,0.3,0.2,0.4l2.5,1c0.1,0,0.2,0,0.2-0.1c0.3-0.8,0.5-1.6,0.7-2.4
				c0-0.1,0-0.1-0.1-0.2l-2.2-0.9C58.1,21,57.9,21.1,57.9,21.2z"/>
			<path class="st0" d="M53.3,18.9L51.2,18c-0.1,0-0.1,0-0.2,0c-0.6,0.6-1.2,1.3-1.6,2c0,0.1,0,0.2,0.1,0.2l2.4,1
				c0.1,0,0.2,0,0.2-0.1c0.4-0.8,0.8-1.5,1.3-2.2C53.4,19,53.4,19,53.3,18.9z"/>
			<path class="st0" d="M58.5,16.7c-1,0-2.1,0.6-3.2,1.7c0,0,0,0.1,0,0.2l1.9,0.8c0.1,0,0.2,0,0.3-0.1l1-2.5
				C58.6,16.8,58.5,16.7,58.5,16.7z"/>
			<path class="st0" d="M59.7,17.2c0.7,0.7,1,2,1,3.5c0,0.1-0.1,0.1-0.1,0.1L58.6,20c-0.1,0-0.2-0.2-0.1-0.3l1-2.5
				C59.6,17.2,59.7,17.2,59.7,17.2z"/>
			<path class="st0" d="M60.3,26.2c-0.4,0.8-0.8,1.5-1.3,2.2c0,0,0,0.1,0,0.1l2.1,0.9c0.1,0,0.1,0,0.2,0c0.6-0.6,1.2-1.3,1.6-2
				c0-0.1,0-0.2-0.1-0.2l-2.4-1C60.4,26.1,60.4,26.2,60.3,26.2z"/>
			<path class="st0" d="M51.5,22.3l-2.4-1c-0.1,0-0.2,0-0.2,0.1c-0.3,0.9-0.4,1.7-0.3,2.6c0,0.1,0,0.1,0.1,0.1l2.1,0.9
				c0.1,0,0.1,0,0.1-0.1c0.1-0.8,0.4-1.6,0.7-2.4C51.6,22.4,51.6,22.4,51.5,22.3z"/>
			<path class="st0" d="M56.1,31.4c1.4,0,2.8-0.3,4-1c0.1,0,0.1-0.1,0-0.2l-1.7-0.7c-0.1,0-0.1,0-0.2,0c-0.7,0.8-1.4,1.3-2.1,1.7
				C56,31.2,56,31.4,56.1,31.4z"/>
			<path class="st0" d="M50.8,29.1c-1-1-1.7-2.2-2-3.6c0-0.1,0.1-0.1,0.1-0.1l1.7,0.7c0.1,0,0.1,0.1,0.1,0.2c-0.1,1,0,1.9,0.3,2.7
				C51,29.1,50.9,29.2,50.8,29.1z"/>
		</g>
	</g>
</g>
</svg>
