<svg width="50" height="50" xmlns="http://www.w3.org/2000/svg">

 <g>
  <title>background</title>
  <rect fill="none" id="canvas_background" height="52" width="52" y="-1" x="-1"/>
 </g>
 <g>
  <title>Layer 1</title>
  <g stroke="null" id="svg_1">
   <path stroke="null" id="svg_2" d="m137.551,21.996l0,20.698c0,3.234 -2.68,5.914 -5.914,5.914s-5.914,-2.68 -5.914,-5.914l0,-20.698c0,-4.898 -3.973,-8.871 -8.871,-8.871c-4.897,0 -8.871,3.973 -8.871,8.871l0,20.698c0,3.234 -2.68,5.914 -5.914,5.914c-3.234,0 -5.914,-2.68 -5.914,-5.914l0,-20.698c0,-11.458 9.241,-20.699 20.698,-20.699c5.822,0 11.089,2.31 14.785,6.191c3.789,-3.881 8.964,-6.191 14.785,-6.191c11.459,0 20.698,9.241 20.698,20.699l0,20.698c0,3.234 -2.68,5.914 -5.914,5.914c-3.234,0 -5.914,-2.68 -5.914,-5.914l0,-20.698c0,-4.898 -3.973,-8.871 -8.871,-8.871c-4.895,0.001 -8.869,3.974 -8.869,8.871z" fill="#30373A"/>
   <path stroke="null" id="svg_3" d="m-39.878,-46c-11.639,0 -21.988,4.617 -29.564,12.38c-7.39,-7.763 -17.926,-12.38 -29.564,-12.38c-22.917,0 -41.39,18.48 -41.39,41.39l0,41.39c0,6.467 5.358,11.832 11.826,11.832c6.467,0 11.826,-5.365 11.826,-11.832l0,-41.39c0,-9.795 7.944,-17.738 17.738,-17.738s17.738,7.944 17.738,17.738l0,41.39c0,6.467 5.358,11.832 11.826,11.832c6.467,0 11.826,-5.365 11.826,-11.832l0,-41.39c0,-9.795 7.951,-17.738 17.738,-17.738c9.795,0 17.745,7.944 17.745,17.738l0,41.39c0,6.467 5.358,11.832 11.826,11.832c2.619,0 5.058,-0.882 7.035,-2.365c-7.55,-10.149 -9.414,-24.012 -3.675,-36.265c2.091,-4.47 5.004,-8.305 8.465,-11.398l0,-3.194c0.001,-22.91 -18.48,-41.39 -41.396,-41.39z" fill="#30373A"/>
   <path stroke="null" id="svg_4" d="m335.208,42.695c0,3.234 -2.68,5.914 -5.914,5.914c-3.234,0 -5.914,-2.68 -5.914,-5.914l0,-62.163c0,-3.234 2.68,-5.914 5.914,-5.914c3.234,0 5.914,2.68 5.914,5.914l0,62.163z" fill="#30373A"/>
   <path stroke="null" id="svg_5" d="m201.867,1.298c13.029,0 23.655,10.627 23.655,23.655c0,13.029 -10.627,23.655 -23.655,23.655c-13.03,0 -23.655,-10.627 -23.655,-23.655c0,-13.029 10.626,-23.655 23.655,-23.655zm0,35.483c6.56,0 11.828,-5.267 11.828,-11.828s-5.268,-11.828 -11.828,-11.828c-6.561,0 -11.828,5.267 -11.828,11.828s5.267,11.828 11.828,11.828z" fill="#30373A"/>
   <path stroke="null" id="svg_6" d="m261.3,1.301c-4.302,0 -8.348,1.161 -11.832,3.198l0,-23.969c0,-3.236 -2.675,-5.911 -5.911,-5.911c-3.237,0 -5.911,2.675 -5.911,5.911l0,44.425c0,8.51 4.531,15.991 11.299,20.151c3.598,2.227 7.834,3.503 12.355,3.503c13.031,0 23.654,-10.623 23.654,-23.654s-10.623,-23.654 -23.654,-23.654zm0,35.485c-6.558,0 -11.832,-5.273 -11.832,-11.832c0,-6.558 5.273,-11.832 11.832,-11.832c6.558,0 11.822,5.273 11.822,11.832c0.001,6.559 -5.263,11.832 -11.822,11.832z" fill="#30373A"/>
   <path stroke="null" id="svg_7" d="m308.934,42.695c0,3.234 -2.68,5.914 -5.914,5.914c-3.234,0 -5.914,-2.68 -5.914,-5.914l0,-35.483c0,-3.234 2.68,-5.914 5.914,-5.914c3.234,0 5.914,2.68 5.914,5.914l0,35.483z" fill="#30373A"/>
   <g stroke="null" id="svg_8">
    <g stroke="null" id="svg_9">
     <path stroke="null" id="svg_10" d="m303.02,-25.382c-3.283,0 -5.915,2.632 -5.915,5.914c0,3.283 2.632,5.915 5.915,5.915c3.283,0 5.914,-2.632 5.914,-5.915c0,-3.282 -2.631,-5.914 -5.914,-5.914z" fill="#30373A"/>
    </g>
   </g>
   <path stroke="null" id="svg_11" d="m361.052,42.695c0,3.234 -2.68,5.914 -5.914,5.914c-3.234,0 -5.914,-2.68 -5.914,-5.914l0,-35.483c0,-3.234 2.68,-5.914 5.914,-5.914c3.234,0 5.914,2.68 5.914,5.914l0,35.483z" fill="#30373A"/>
   <g stroke="null" id="svg_12">
    <g stroke="null" id="svg_13">
     <path stroke="null" id="svg_14" d="m355.138,-25.382c-3.283,0 -5.915,2.632 -5.915,5.914c0,3.283 2.632,5.915 5.915,5.915c3.283,0 5.914,-2.632 5.914,-5.915c0.001,-3.282 -2.631,-5.914 -5.914,-5.914z" fill="#30373A"/>
    </g>
   </g>
   <path stroke="null" id="svg_15" d="m399.357,36.78c0,0 -0.168,0 -0.254,0c-6.562,0 -11.829,-5.267 -11.829,-11.829l0,-11.822l8.872,0c3.231,0 5.914,-2.684 5.914,-5.914c0,-3.238 -2.684,-5.914 -5.914,-5.914l-8.872,0l0,-20.768c0,-3.238 -2.684,-5.914 -5.914,-5.914c-3.238,0 -5.914,2.677 -5.914,5.914l0,44.418c0,8.504 4.526,15.988 11.301,20.16c3.598,2.216 7.83,3.498 12.356,3.498c0.086,0 0.254,0 0.254,0c3.224,0 5.914,-2.684 5.914,-5.914c0.001,-3.238 -2.689,-5.915 -5.914,-5.915z" fill="#30373A"/>
   <path stroke="null" id="svg_16" d="m457.263,1.982c-2.857,-1.515 -6.48,-0.402 -7.995,2.455l-12.341,23.419l-12.709,-23.419c-1.515,-2.857 -5.138,-3.97 -7.995,-2.455c-2.857,1.515 -3.97,5.138 -2.455,7.995l16.529,30.46l-11.055,20.978c-1.515,2.857 -0.402,6.48 2.455,7.995c2.857,1.515 6.48,0.402 7.995,-2.455l30.026,-56.978c1.515,-2.857 0.402,-6.48 -2.455,-7.995z" fill="#30373A"/>
   <g stroke="null" id="svg_17">
    <g stroke="null" id="svg_18">
     <path stroke="null" id="svg_19" d="m107.828,104c-3.802,0 -6.697,-1.056 -8.689,-3.172c-1.99,-2.114 -2.986,-5.117 -2.986,-9.009c0,-1.934 0.303,-3.66 0.911,-5.179c0.608,-1.518 1.44,-2.801 2.497,-3.847c1.057,-1.046 2.317,-1.839 3.779,-2.379c1.462,-0.54 3.048,-0.81 4.757,-0.81c0.99,0 1.89,0.073 2.7,0.219c0.809,0.147 1.518,0.315 2.125,0.506c0.607,0.191 1.113,0.388 1.518,0.59c0.405,0.202 0.697,0.36 0.877,0.472l-1.518,4.252c-0.72,-0.383 -1.558,-0.709 -2.514,-0.979c-0.956,-0.269 -2.042,-0.405 -3.256,-0.405c-0.81,0 -1.603,0.135 -2.379,0.405c-0.776,0.27 -1.462,0.704 -2.058,1.299c-0.596,0.597 -1.074,1.366 -1.434,2.311c-0.36,0.945 -0.54,2.092 -0.54,3.442c0,1.08 0.118,2.086 0.354,3.02c0.237,0.933 0.619,1.737 1.148,2.413c0.528,0.675 1.22,1.209 2.076,1.602c0.855,0.394 1.889,0.59 3.104,0.59c0.764,0 1.45,-0.045 2.058,-0.135c0.607,-0.09 1.147,-0.197 1.62,-0.32c0.472,-0.123 0.888,-0.264 1.248,-0.422c0.36,-0.157 0.686,-0.304 0.979,-0.439l1.45,4.218c-0.742,0.45 -1.788,0.855 -3.138,1.214c-1.348,0.363 -2.912,0.543 -4.689,0.543z" fill="#B20C2D"/>
     <path stroke="null" id="svg_20" d="m121.298,80.145l5.263,0l0,23.383l-5.263,0l0,-23.383z" fill="#B20C2D"/>
     <path stroke="null" id="svg_21" d="m151.429,80.145l0,4.488l-7.052,0l0,18.895l-5.264,0l0,-18.895l-7.052,0l0,-4.488l19.368,0z" fill="#B20C2D"/>
     <path stroke="null" id="svg_22" d="m166.836,89.736c0.946,-1.593 1.846,-3.186 2.702,-4.778c0.856,-1.593 1.644,-3.197 2.365,-4.813l5.804,0c-1.283,2.52 -2.61,4.96 -3.982,7.322c-1.372,2.362 -2.823,4.736 -4.353,7.12l0,8.941l-5.263,0l0,-8.874c-1.529,-2.384 -2.986,-4.769 -4.369,-7.153c-1.384,-2.384 -2.716,-4.836 -3.998,-7.356l6.107,0c0.719,1.616 1.494,3.22 2.326,4.813c0.829,1.592 1.718,3.185 2.661,4.778z" fill="#B20C2D"/>
    </g>
    <g stroke="null" id="svg_23">
     <path stroke="null" id="svg_24" d="m18.296,46.403c2.908,0.109 6.321,-1.755 9.531,-4.986c0.142,-0.143 0.094,-0.388 -0.091,-0.466l-5.777,-2.453c-0.337,-0.143 -0.725,0.014 -0.868,0.351l-3.038,7.156c-0.077,0.18 0.047,0.39 0.243,0.398z" fill="#B20C2D"/>
     <path stroke="null" id="svg_25" d="m14.525,44.802c-2.099,-2.016 -3.128,-5.766 -3.034,-10.32c0.004,-0.201 0.213,-0.337 0.398,-0.259l5.777,2.452c0.337,0.143 0.494,0.532 0.351,0.868l-3.037,7.157c-0.076,0.181 -0.313,0.238 -0.455,0.102z" fill="#B20C2D"/>
     <path stroke="null" id="svg_26" d="m39.684,29.532l7.316,3.106c0.254,0.108 0.552,-0.023 0.639,-0.286c0.856,-2.589 1.237,-5.236 1.186,-7.842c-0.004,-0.188 -0.12,-0.356 -0.292,-0.429l-6.588,-2.797c-0.166,-0.071 -0.352,0.029 -0.385,0.206c-0.465,2.447 -1.186,4.95 -2.13,7.441c-0.09,0.237 0.021,0.502 0.254,0.601z" fill="#B20C2D"/>
     <path stroke="null" id="svg_27" d="m25.64,1.305c-4.552,-0.088 -9.01,1.145 -12.838,3.49c-0.196,0.12 -0.172,0.417 0.04,0.507l5.47,2.323c0.186,0.079 0.402,0.028 0.536,-0.123c2.201,-2.48 4.559,-4.409 6.923,-5.664c0.262,-0.139 0.164,-0.528 -0.131,-0.533z" fill="#B20C2D"/>
     <path stroke="null" id="svg_28" d="m41.847,8.184c3.225,3.213 5.435,7.277 6.407,11.659c0.05,0.225 -0.181,0.413 -0.393,0.323l-5.471,-2.322c-0.186,-0.079 -0.299,-0.27 -0.284,-0.472c0.255,-3.306 0.004,-6.342 -0.735,-8.915c-0.081,-0.282 0.267,-0.481 0.476,-0.273z" fill="#B20C2D"/>
     <path stroke="null" id="svg_29" d="m26.651,14.791l-6.647,-2.822c-0.203,-0.086 -0.438,-0.025 -0.569,0.152c-1.44,1.954 -2.777,4.177 -3.937,6.603c-0.117,0.244 -0.004,0.539 0.244,0.644l7.596,3.225c0.481,0.204 1.036,-0.02 1.241,-0.501l2.573,-6.06c0.204,-0.482 -0.02,-1.037 -0.501,-1.241z" fill="#B20C2D"/>
     <path stroke="null" id="svg_30" d="m13.828,22.726c-0.917,2.525 -1.57,5.045 -1.949,7.477c-0.033,0.215 0.086,0.425 0.287,0.51l6.546,2.779c0.481,0.204 1.036,-0.02 1.241,-0.501l2.584,-6.086c0.204,-0.481 -0.02,-1.036 -0.501,-1.241l-7.571,-3.215c-0.253,-0.105 -0.545,0.022 -0.637,0.277z" fill="#B20C2D"/>
     <path stroke="null" id="svg_31" d="m23.525,35.536l6.542,2.778c0.2,0.085 0.434,0.026 0.565,-0.148c1.47,-1.941 2.841,-4.161 4.034,-6.592c0.12,-0.244 0.008,-0.543 -0.242,-0.649l-7.576,-3.216c-0.481,-0.204 -1.036,0.02 -1.241,0.501l-2.584,6.086c-0.204,0.481 0.021,1.036 0.502,1.24z" fill="#B20C2D"/>
     <path stroke="null" id="svg_32" d="m30.224,17.336l-2.573,6.06c-0.204,0.481 0.02,1.036 0.501,1.241l7.587,3.221c0.248,0.105 0.538,-0.018 0.633,-0.271c0.935,-2.498 1.614,-4.996 2.025,-7.414c0.037,-0.217 -0.083,-0.43 -0.286,-0.516l-6.646,-2.822c-0.481,-0.205 -1.037,0.02 -1.241,0.501z" fill="#B20C2D"/>
     <path stroke="null" id="svg_33" d="m16.159,10.336l-6.576,-2.792c-0.173,-0.073 -0.374,-0.04 -0.512,0.088c-1.91,1.774 -3.55,3.887 -4.818,6.301c-0.129,0.245 -0.016,0.55 0.238,0.659l7.302,3.1c0.233,0.099 0.501,-0.007 0.609,-0.236c1.154,-2.449 2.464,-4.694 3.877,-6.7c0.104,-0.148 0.046,-0.35 -0.12,-0.42z" fill="#B20C2D"/>
     <path stroke="null" id="svg_34" d="m32.058,3.504c-3.012,-0.113 -6.566,1.893 -9.876,5.341c-0.138,0.144 -0.089,0.385 0.094,0.463l5.94,2.522c0.337,0.143 0.726,-0.014 0.868,-0.351l3.217,-7.577c0.077,-0.181 -0.047,-0.391 -0.243,-0.398z" fill="#B20C2D"/>
     <path stroke="null" id="svg_35" d="m35.828,5.104c2.174,2.088 3.2,6.038 3.018,10.814c-0.008,0.199 -0.215,0.332 -0.399,0.254l-5.94,-2.521c-0.337,-0.143 -0.494,-0.532 -0.351,-0.868l3.215,-7.577c0.078,-0.181 0.316,-0.238 0.457,-0.102z" fill="#B20C2D"/>
     <path stroke="null" id="svg_36" d="m37.767,32.834c-1.182,2.453 -2.518,4.7 -3.96,6.696c-0.106,0.147 -0.049,0.351 0.119,0.422l6.477,2.75c0.17,0.072 0.367,0.041 0.505,-0.081c1.967,-1.749 3.662,-3.851 4.984,-6.261c0.135,-0.245 0.023,-0.557 -0.234,-0.666l-7.283,-3.092c-0.233,-0.098 -0.499,0.005 -0.608,0.232z" fill="#B20C2D"/>
     <path stroke="null" id="svg_37" d="m10.517,20.776l-7.292,-3.096c-0.258,-0.109 -0.559,0.027 -0.642,0.294c-0.814,2.625 -1.15,5.304 -1.042,7.933c0.008,0.184 0.123,0.347 0.292,0.419l6.5,2.76c0.167,0.071 0.354,-0.03 0.386,-0.209c0.438,-2.463 1.126,-4.988 2.053,-7.505c0.088,-0.235 -0.023,-0.498 -0.255,-0.596z" fill="#B20C2D"/>
     <path stroke="null" id="svg_38" d="m24.713,48.602c4.356,0.084 8.625,-1.046 12.339,-3.199c0.202,-0.117 0.181,-0.42 -0.035,-0.511l-5.297,-2.249c-0.184,-0.078 -0.396,-0.029 -0.531,0.119c-2.111,2.312 -4.358,4.115 -6.61,5.309c-0.261,0.138 -0.161,0.525 0.134,0.531z" fill="#B20C2D"/>
     <path stroke="null" id="svg_39" d="m8.513,41.725c-3.086,-3.075 -5.239,-6.931 -6.271,-11.098c-0.056,-0.227 0.177,-0.422 0.392,-0.33l5.298,2.248c0.184,0.078 0.296,0.265 0.283,0.464c-0.197,3.124 0.067,5.993 0.772,8.443c0.083,0.284 -0.264,0.482 -0.474,0.273z" fill="#B20C2D"/>
    </g>
   </g>
  </g>
 </g>
</svg>
