<?xml version="1.0" encoding="utf-8"?>
<!-- Generator: Adobe Illustrator 18.0.0, SVG Export Plug-In . SVG Version: 6.00 Build 0)  -->
<!DOCTYPE svg PUBLIC "-//W3C//DTD SVG 1.1//EN" "http://www.w3.org/Graphics/SVG/1.1/DTD/svg11.dtd">
<svg version="1.1" id="Livello_1" xmlns="http://www.w3.org/2000/svg" xmlns:xlink="http://www.w3.org/1999/xlink" x="0px" y="0px"
	 viewBox="0 0 120 40" enable-background="new 0 0 120 40" xml:space="preserve">
<g>
	<polygon fill="#FFFFFF" points="19.925,7.783 16.547,18.542 13.091,7.783 11.586,7.783 8.372,23.763 11.106,23.763 12.829,15.151 
		16.045,23.97 17.059,23.97 20.274,15.151 21.931,23.763 24.677,23.763 21.419,7.783 	"/>
	<g>
		<path fill="#FFFFFF" d="M35.554,20.002c-0.745,1.002-1.826,1.504-3.242,1.504c-1.206,0-2.126-0.513-2.758-1.538
			c-0.632-1.024-0.948-2.47-0.948-4.337c0-1.715,0.337-3.08,1.013-4.093c0.676-1.014,1.647-1.521,2.911-1.521
			c2.761,0,4.142,1.871,4.142,5.614C36.672,17.543,36.3,18.999,35.554,20.002 M32.53,7.5c-2.086,0-3.751,0.786-4.998,2.359
			c-1.246,1.575-1.869,3.498-1.869,5.772c0,2.6,0.572,4.65,1.717,6.147c1.144,1.497,2.787,2.246,4.932,2.246
			c2.332,0,4.132-0.757,5.401-2.267c1.268-1.512,1.903-3.553,1.903-6.125c0-2.573-0.607-4.571-1.821-5.996
			C36.581,8.212,34.826,7.5,32.53,7.5"/>
	</g>
	<polygon fill="#FFFFFF" points="46.925,18.574 43.23,7.783 40.113,7.783 46.086,23.97 47.644,23.97 53.879,7.783 50.827,7.783 	"/>
	<polygon fill="#FFFFFF" points="55.76,23.751 65.832,23.751 65.832,21.234 58.594,21.234 58.594,16.448 63.869,16.448 
		63.869,14.04 58.594,14.04 58.594,10.301 65.952,10.301 65.952,7.783 55.76,7.783 	"/>
	<g>
		<path fill="#FFFFFF" d="M76.005,16.084c-0.472-0.44-1.242-0.921-2.31-1.444c-2.028-0.988-3.041-1.94-3.041-2.856
			c0-0.552,0.179-1,0.539-1.346c0.36-0.345,0.867-0.517,1.521-0.517c1.104,0,2.154,0.356,3.15,1.068l0.861-2.441
			c-0.865-0.691-2.22-1.036-4.065-1.036c-1.417,0-2.578,0.406-3.483,1.221c-0.905,0.814-1.357,1.838-1.357,3.073
			c0,0.662,0.114,1.265,0.343,1.81c0.228,0.545,0.555,1.016,0.982,1.411c0.425,0.396,1.249,0.901,2.473,1.516
			c1.225,0.613,2.032,1.167,2.426,1.661c0.393,0.495,0.588,1.014,0.588,1.559c0,1.163-0.832,1.743-2.496,1.743
			c-1.083,0-2.184-0.392-3.303-1.177l-1.046,2.54c1.199,0.77,2.542,1.154,4.033,1.154c1.715,0,3.083-0.417,4.103-1.253
			c1.02-0.835,1.531-1.9,1.531-3.194c0-0.719-0.123-1.372-0.37-1.956C76.838,17.035,76.478,16.523,76.005,16.084"/>
	</g>
	<rect x="79.945" y="7.784" fill="#FFFFFF" width="2.834" height="15.968"/>
	<g>
		<path fill="#FFFFFF" d="M95.334,20.002c-0.745,1.002-1.825,1.504-3.242,1.504c-1.206,0-2.125-0.513-2.758-1.538
			c-0.632-1.024-0.948-2.47-0.948-4.337c0-1.715,0.337-3.08,1.013-4.093c0.676-1.014,1.647-1.521,2.911-1.521
			c2.761,0,4.142,1.871,4.142,5.614C96.453,17.543,96.08,18.999,95.334,20.002 M92.31,7.5c-2.086,0-3.751,0.786-4.998,2.359
			c-1.246,1.575-1.869,3.498-1.869,5.772c0,2.6,0.572,4.65,1.717,6.147c1.144,1.497,2.788,2.246,4.932,2.246
			c2.332,0,4.132-0.757,5.401-2.267c1.267-1.512,1.902-3.553,1.902-6.125c0-2.573-0.607-4.571-1.82-5.996
			C96.361,8.212,94.606,7.5,92.31,7.5"/>
	</g>
	<polygon fill="#FFFFFF" points="110.918,7.784 110.918,17.418 103.376,7.784 102.014,7.784 102.014,23.763 104.739,23.763 
		104.739,13.866 112.488,23.969 113.643,23.969 113.643,7.784 	"/>
	<g>
		<path fill="#FFFFFF" d="M11.858,29.227c-0.016-0.016-0.035-0.028-0.059-0.035c-0.022-0.007-0.048-0.011-0.074-0.011h-0.279
			c-0.043,0-0.08,0.005-0.113,0.014c-0.032,0.01-0.061,0.024-0.089,0.046c-0.026,0.021-0.051,0.048-0.073,0.085
			c-0.022,0.035-0.042,0.078-0.061,0.129l-0.974,2.362h-0.013l-0.935-2.37c-0.016-0.046-0.033-0.085-0.054-0.118
			c-0.021-0.035-0.046-0.062-0.077-0.084c-0.03-0.022-0.066-0.038-0.108-0.048c-0.041-0.01-0.088-0.016-0.144-0.016H8.539
			c-0.047,0-0.089,0.016-0.126,0.046c-0.037,0.03-0.056,0.08-0.056,0.151v3.009c0,0.014,0.003,0.025,0.009,0.035
			c0.006,0.01,0.017,0.018,0.034,0.023c0.016,0.006,0.039,0.012,0.067,0.016c0.028,0.004,0.062,0.006,0.104,0.006
			c0.042,0,0.079-0.002,0.106-0.006c0.028-0.004,0.05-0.01,0.067-0.016c0.017-0.005,0.029-0.014,0.036-0.023
			c0.007-0.01,0.01-0.022,0.01-0.035v-2.849h0.003l1.103,2.862c0.003,0.01,0.01,0.019,0.018,0.028
			c0.01,0.008,0.022,0.016,0.039,0.021c0.017,0.006,0.038,0.01,0.063,0.015c0.026,0.003,0.056,0.005,0.092,0.005
			c0.034,0,0.062-0.001,0.086-0.003c0.025-0.003,0.047-0.007,0.064-0.014c0.017-0.005,0.031-0.013,0.041-0.022
			c0.009-0.008,0.016-0.018,0.021-0.029l1.154-2.862h0.005v2.849c0,0.014,0.003,0.025,0.01,0.035
			c0.007,0.01,0.018,0.018,0.035,0.023c0.016,0.006,0.039,0.012,0.067,0.016c0.029,0.004,0.063,0.006,0.103,0.006
			c0.043,0,0.08-0.002,0.106-0.006c0.027-0.004,0.048-0.01,0.066-0.016c0.017-0.005,0.029-0.014,0.036-0.023
			c0.007-0.01,0.01-0.022,0.01-0.035v-3.009c0-0.035-0.005-0.066-0.016-0.09C11.888,29.263,11.875,29.243,11.858,29.227"/>
		<path fill="#FFFFFF" d="M18.546,31.312c-0.034,0.158-0.09,0.298-0.17,0.418c-0.079,0.121-0.183,0.217-0.313,0.287
			c-0.129,0.072-0.289,0.107-0.479,0.107c-0.193,0-0.351-0.033-0.479-0.099c-0.127-0.064-0.228-0.156-0.304-0.272
			c-0.075-0.117-0.13-0.257-0.162-0.419c-0.032-0.162-0.048-0.339-0.048-0.531c0-0.174,0.017-0.339,0.052-0.497
			c0.034-0.157,0.092-0.294,0.171-0.413c0.08-0.118,0.184-0.213,0.312-0.284c0.128-0.071,0.286-0.106,0.475-0.106
			s0.347,0.033,0.475,0.098c0.128,0.067,0.23,0.157,0.306,0.275c0.077,0.118,0.132,0.255,0.164,0.414
			c0.033,0.159,0.049,0.331,0.049,0.517C18.596,30.986,18.58,31.153,18.546,31.312 M18.704,29.558
			c-0.119-0.139-0.268-0.244-0.447-0.317c-0.179-0.072-0.388-0.108-0.629-0.108c-0.25,0-0.468,0.04-0.656,0.119
			c-0.187,0.081-0.342,0.195-0.468,0.342c-0.124,0.148-0.218,0.327-0.28,0.537c-0.063,0.212-0.093,0.445-0.093,0.703
			c0,0.27,0.029,0.508,0.086,0.715c0.057,0.208,0.145,0.382,0.262,0.521c0.117,0.141,0.265,0.247,0.445,0.321
			c0.179,0.074,0.392,0.11,0.638,0.11c0.249,0,0.467-0.04,0.655-0.12c0.187-0.08,0.342-0.195,0.466-0.344
			c0.125-0.149,0.217-0.329,0.28-0.542c0.062-0.212,0.093-0.451,0.093-0.715c0-0.265-0.029-0.499-0.087-0.704
			C18.911,29.869,18.823,29.697,18.704,29.558"/>
		<path fill="#FFFFFF" d="M24.921,31.779c-0.032,0.069-0.076,0.126-0.132,0.174c-0.056,0.046-0.121,0.08-0.196,0.104
			c-0.074,0.023-0.16,0.035-0.259,0.035h-0.631v-1.152h0.52c0.137,0,0.25,0.013,0.339,0.038c0.091,0.027,0.165,0.065,0.225,0.116
			c0.06,0.05,0.106,0.112,0.136,0.187c0.031,0.074,0.047,0.16,0.047,0.258C24.968,31.631,24.953,31.71,24.921,31.779 M23.702,29.534
			h0.449c0.124,0,0.225,0.012,0.3,0.035c0.076,0.023,0.137,0.057,0.184,0.103c0.048,0.044,0.081,0.099,0.104,0.163
			c0.022,0.064,0.032,0.135,0.032,0.214c0,0.071-0.01,0.14-0.031,0.207c-0.021,0.066-0.054,0.125-0.099,0.174
			c-0.046,0.05-0.103,0.089-0.171,0.119c-0.069,0.029-0.16,0.044-0.273,0.044h-0.494V29.534z M25.238,30.966
			c-0.058-0.069-0.126-0.126-0.203-0.171c-0.078-0.044-0.161-0.075-0.251-0.093c0.071-0.03,0.133-0.069,0.189-0.116
			c0.054-0.047,0.1-0.101,0.137-0.16c0.035-0.06,0.064-0.125,0.082-0.196c0.019-0.071,0.028-0.145,0.028-0.222
			c0-0.13-0.021-0.246-0.064-0.349c-0.042-0.103-0.104-0.19-0.188-0.26c-0.083-0.07-0.188-0.125-0.312-0.162
			c-0.125-0.037-0.285-0.055-0.48-0.055h-0.744c-0.039,0-0.076,0.013-0.11,0.039c-0.035,0.026-0.052,0.072-0.052,0.138v2.919
			c0,0.065,0.017,0.111,0.052,0.137c0.034,0.026,0.071,0.04,0.11,0.04h0.855c0.122,0,0.232-0.01,0.326-0.027
			c0.096-0.018,0.185-0.044,0.269-0.08c0.083-0.035,0.158-0.08,0.225-0.131c0.067-0.052,0.124-0.112,0.17-0.182
			c0.047-0.068,0.084-0.147,0.111-0.233c0.026-0.087,0.039-0.182,0.039-0.285c0-0.112-0.017-0.213-0.05-0.306
			C25.343,31.115,25.296,31.034,25.238,30.966"/>
		<path fill="#FFFFFF" d="M29.996,29.187c-0.017-0.006-0.039-0.011-0.067-0.016c-0.029-0.004-0.064-0.006-0.106-0.006
			c-0.039,0-0.072,0.002-0.1,0.006c-0.028,0.004-0.05,0.01-0.068,0.016c-0.017,0.006-0.029,0.014-0.037,0.023
			c-0.008,0.01-0.011,0.022-0.011,0.035v3.14c0,0.014,0.003,0.025,0.01,0.036c0.007,0.01,0.019,0.018,0.035,0.023
			c0.016,0.006,0.04,0.011,0.068,0.016c0.029,0.004,0.063,0.006,0.104,0.006c0.042,0,0.077-0.002,0.106-0.006
			c0.028-0.004,0.049-0.01,0.067-0.016c0.016-0.005,0.029-0.014,0.035-0.023c0.006-0.011,0.01-0.022,0.01-0.036v-3.14
			c0-0.014-0.003-0.025-0.01-0.035C30.024,29.201,30.012,29.193,29.996,29.187"/>
		<path fill="#FFFFFF" d="M36.092,32.12c-0.008-0.015-0.016-0.025-0.028-0.033c-0.01-0.008-0.023-0.011-0.039-0.011h-1.174v-2.83
			c0-0.013-0.003-0.026-0.01-0.035c-0.007-0.01-0.019-0.018-0.035-0.024c-0.016-0.006-0.04-0.011-0.067-0.015
			c-0.028-0.004-0.062-0.007-0.105-0.007c-0.041,0-0.075,0.003-0.104,0.007c-0.029,0.003-0.051,0.009-0.068,0.015
			c-0.016,0.006-0.029,0.014-0.035,0.024c-0.007,0.01-0.01,0.022-0.01,0.035v3.029c0,0.065,0.017,0.112,0.053,0.138
			c0.034,0.026,0.071,0.039,0.109,0.039h1.447c0.016,0,0.029-0.003,0.039-0.011c0.011-0.008,0.02-0.019,0.028-0.035
			c0.008-0.016,0.013-0.035,0.016-0.058c0.003-0.023,0.005-0.051,0.005-0.085c0-0.034-0.002-0.062-0.005-0.086
			C36.104,32.153,36.099,32.134,36.092,32.12"/>
		<path fill="#FFFFFF" d="M40.552,29.187c-0.017-0.006-0.04-0.011-0.067-0.016c-0.029-0.004-0.064-0.006-0.106-0.006
			c-0.039,0-0.072,0.002-0.1,0.006c-0.028,0.004-0.05,0.01-0.068,0.016c-0.017,0.006-0.029,0.014-0.037,0.023
			c-0.008,0.01-0.011,0.022-0.011,0.035v3.14c0,0.014,0.003,0.025,0.01,0.036c0.007,0.01,0.019,0.018,0.035,0.023
			c0.016,0.006,0.04,0.011,0.068,0.016c0.029,0.004,0.063,0.006,0.104,0.006c0.042,0,0.077-0.002,0.106-0.006
			c0.027-0.004,0.049-0.01,0.067-0.016c0.016-0.005,0.029-0.014,0.035-0.023c0.007-0.011,0.01-0.022,0.01-0.036v-3.14
			c0-0.014-0.003-0.025-0.01-0.035C40.58,29.201,40.568,29.193,40.552,29.187"/>
		<path fill="#FFFFFF" d="M47.066,29.223c-0.007-0.015-0.016-0.026-0.028-0.033c-0.01-0.006-0.022-0.01-0.036-0.01h-2.275
			c-0.014,0-0.027,0.003-0.037,0.01c-0.011,0.007-0.02,0.018-0.027,0.033c-0.007,0.016-0.012,0.035-0.016,0.059
			c-0.004,0.025-0.006,0.054-0.006,0.086c0,0.032,0.002,0.06,0.006,0.083s0.01,0.043,0.016,0.057
			c0.007,0.015,0.016,0.025,0.027,0.032c0.01,0.007,0.023,0.01,0.037,0.01h0.92v2.837c0,0.014,0.003,0.026,0.01,0.035
			c0.007,0.01,0.019,0.018,0.035,0.024c0.016,0.007,0.04,0.01,0.069,0.016c0.029,0.004,0.062,0.007,0.103,0.007
			c0.042,0,0.078-0.003,0.106-0.007c0.028-0.005,0.049-0.009,0.067-0.016c0.016-0.006,0.029-0.014,0.035-0.024
			c0.006-0.01,0.01-0.022,0.01-0.035v-2.837h0.921c0.014,0,0.026-0.003,0.036-0.01c0.011-0.007,0.021-0.017,0.028-0.032
			c0.008-0.014,0.013-0.034,0.016-0.057s0.005-0.051,0.005-0.083c0-0.032-0.002-0.061-0.005-0.086
			C47.079,29.258,47.074,29.239,47.066,29.223"/>
		<path fill="#FFFFFF" d="M53.236,29.172c-0.035-0.004-0.081-0.007-0.143-0.007c-0.044,0-0.08,0.002-0.108,0.005
			c-0.03,0.003-0.052,0.008-0.068,0.014c-0.016,0.006-0.029,0.015-0.037,0.027c-0.01,0.011-0.016,0.026-0.022,0.042l-0.455,0.946
			c-0.042,0.093-0.084,0.187-0.125,0.281c-0.042,0.096-0.081,0.192-0.119,0.288h-0.005c-0.043-0.099-0.086-0.198-0.129-0.297
			c-0.042-0.097-0.083-0.191-0.125-0.28l-0.452-0.941c-0.009-0.016-0.017-0.03-0.027-0.042c-0.009-0.01-0.023-0.019-0.042-0.025
			c-0.018-0.006-0.043-0.01-0.074-0.014c-0.03-0.003-0.071-0.005-0.123-0.005c-0.054,0-0.099,0.002-0.131,0.005
			c-0.034,0.003-0.056,0.011-0.069,0.022c-0.012,0.012-0.016,0.029-0.012,0.05c0.003,0.023,0.015,0.054,0.034,0.092l0.926,1.845
			v1.206c0,0.014,0.003,0.027,0.01,0.036c0.007,0.01,0.019,0.018,0.036,0.024c0.017,0.006,0.04,0.01,0.067,0.015
			c0.028,0.004,0.063,0.007,0.105,0.007c0.041,0,0.074-0.003,0.103-0.007c0.029-0.004,0.052-0.009,0.068-0.015
			c0.016-0.006,0.029-0.014,0.035-0.024c0.007-0.01,0.01-0.022,0.01-0.036V31.18l0.925-1.845c0.018-0.036,0.03-0.066,0.035-0.089
			c0.004-0.022-0.001-0.038-0.015-0.05C53.294,29.184,53.27,29.175,53.236,29.172"/>
		<path fill="#FFFFFF" d="M64.292,29.223c-0.008-0.015-0.016-0.026-0.028-0.033c-0.01-0.006-0.022-0.01-0.036-0.01h-2.275
			c-0.014,0-0.027,0.003-0.037,0.01c-0.011,0.007-0.02,0.018-0.027,0.033c-0.007,0.016-0.012,0.035-0.016,0.059
			c-0.004,0.025-0.006,0.054-0.006,0.086c0,0.032,0.002,0.06,0.006,0.083c0.004,0.023,0.01,0.043,0.016,0.057
			c0.007,0.015,0.016,0.025,0.027,0.032c0.01,0.007,0.023,0.01,0.037,0.01h0.92v2.837c0,0.014,0.003,0.026,0.01,0.035
			c0.007,0.01,0.019,0.018,0.035,0.024c0.016,0.007,0.04,0.01,0.069,0.016c0.029,0.004,0.062,0.007,0.103,0.007
			c0.042,0,0.078-0.003,0.106-0.007c0.028-0.005,0.049-0.009,0.067-0.016c0.016-0.006,0.029-0.014,0.035-0.024
			c0.006-0.01,0.01-0.022,0.01-0.035v-2.837h0.921c0.014,0,0.026-0.003,0.036-0.01c0.011-0.007,0.02-0.017,0.028-0.032
			c0.008-0.014,0.013-0.034,0.016-0.057s0.005-0.051,0.005-0.083c0-0.032-0.002-0.061-0.005-0.086
			C64.305,29.258,64.3,29.239,64.292,29.223"/>
		<path fill="#FFFFFF" d="M70.484,31.312c-0.034,0.158-0.09,0.298-0.17,0.418c-0.079,0.121-0.183,0.217-0.313,0.287
			c-0.129,0.072-0.289,0.107-0.479,0.107c-0.193,0-0.351-0.033-0.479-0.099c-0.127-0.064-0.228-0.156-0.304-0.272
			c-0.075-0.117-0.13-0.257-0.162-0.419c-0.032-0.162-0.048-0.339-0.048-0.531c0-0.174,0.017-0.339,0.052-0.497
			c0.034-0.157,0.092-0.294,0.171-0.413c0.08-0.118,0.184-0.213,0.312-0.284c0.128-0.071,0.286-0.106,0.475-0.106
			s0.347,0.033,0.474,0.098c0.129,0.067,0.231,0.157,0.307,0.275c0.077,0.118,0.131,0.255,0.164,0.414
			c0.033,0.159,0.049,0.331,0.049,0.517C70.534,30.986,70.517,31.153,70.484,31.312 M70.642,29.558
			c-0.119-0.139-0.268-0.244-0.447-0.317c-0.179-0.072-0.388-0.108-0.629-0.108c-0.25,0-0.468,0.04-0.656,0.119
			c-0.187,0.081-0.342,0.195-0.468,0.342c-0.124,0.148-0.218,0.327-0.28,0.537c-0.063,0.212-0.093,0.445-0.093,0.703
			c0,0.27,0.029,0.508,0.086,0.715c0.057,0.208,0.145,0.382,0.262,0.521c0.117,0.141,0.265,0.247,0.445,0.321
			c0.179,0.074,0.392,0.11,0.638,0.11c0.249,0,0.467-0.04,0.655-0.12c0.187-0.08,0.342-0.195,0.466-0.344
			c0.125-0.149,0.217-0.329,0.28-0.542c0.062-0.212,0.093-0.451,0.093-0.715c0-0.265-0.029-0.499-0.086-0.704
			C70.849,29.869,70.76,29.697,70.642,29.558"/>
		<path fill="#FFFFFF" d="M78.718,29.227c-0.016-0.016-0.035-0.028-0.059-0.035c-0.022-0.007-0.048-0.011-0.074-0.011h-0.279
			c-0.043,0-0.081,0.005-0.113,0.014c-0.032,0.01-0.061,0.024-0.089,0.046c-0.026,0.021-0.051,0.048-0.073,0.085
			c-0.022,0.035-0.043,0.078-0.061,0.129l-0.974,2.362h-0.013l-0.935-2.37c-0.016-0.046-0.033-0.085-0.054-0.118
			c-0.021-0.035-0.046-0.062-0.077-0.084c-0.03-0.022-0.066-0.038-0.108-0.048c-0.041-0.01-0.088-0.016-0.144-0.016h-0.266
			c-0.047,0-0.089,0.016-0.126,0.046c-0.038,0.03-0.056,0.08-0.056,0.151v3.009c0,0.014,0.003,0.025,0.009,0.035
			c0.006,0.01,0.017,0.018,0.034,0.023c0.016,0.006,0.039,0.012,0.067,0.016c0.028,0.004,0.061,0.006,0.103,0.006
			c0.043,0,0.08-0.002,0.107-0.006c0.028-0.004,0.05-0.01,0.067-0.016c0.017-0.005,0.029-0.014,0.036-0.023
			c0.007-0.01,0.01-0.022,0.01-0.035v-2.849h0.003l1.103,2.862c0.003,0.01,0.01,0.019,0.019,0.028
			c0.01,0.008,0.022,0.016,0.039,0.021c0.017,0.006,0.038,0.01,0.063,0.015c0.026,0.003,0.056,0.005,0.092,0.005
			c0.034,0,0.062-0.001,0.086-0.003c0.025-0.003,0.047-0.007,0.064-0.014c0.017-0.005,0.031-0.013,0.04-0.022
			c0.01-0.008,0.016-0.018,0.022-0.029l1.154-2.862h0.005v2.849c0,0.014,0.003,0.025,0.01,0.035c0.008,0.01,0.019,0.018,0.035,0.023
			c0.016,0.006,0.039,0.012,0.067,0.016c0.029,0.004,0.063,0.006,0.103,0.006c0.043,0,0.08-0.002,0.106-0.006
			c0.027-0.004,0.049-0.01,0.067-0.016c0.017-0.005,0.029-0.014,0.036-0.023c0.007-0.01,0.01-0.022,0.01-0.035v-3.009
			c0-0.035-0.005-0.066-0.016-0.09C78.748,29.263,78.735,29.243,78.718,29.227"/>
		<path fill="#FFFFFF" d="M85.406,31.312c-0.034,0.158-0.09,0.298-0.169,0.418c-0.079,0.121-0.183,0.217-0.313,0.287
			c-0.129,0.072-0.289,0.107-0.479,0.107c-0.193,0-0.352-0.033-0.479-0.099c-0.127-0.064-0.228-0.156-0.304-0.272
			c-0.075-0.117-0.13-0.257-0.162-0.419c-0.032-0.162-0.048-0.339-0.048-0.531c0-0.174,0.017-0.339,0.052-0.497
			c0.034-0.157,0.092-0.294,0.171-0.413c0.08-0.118,0.184-0.213,0.312-0.284c0.128-0.071,0.286-0.106,0.475-0.106
			s0.347,0.033,0.474,0.098c0.129,0.067,0.231,0.157,0.307,0.275c0.077,0.118,0.131,0.255,0.164,0.414
			c0.033,0.159,0.049,0.331,0.049,0.517C85.456,30.986,85.439,31.153,85.406,31.312 M85.564,29.558
			c-0.119-0.139-0.268-0.244-0.447-0.317c-0.179-0.072-0.388-0.108-0.629-0.108c-0.25,0-0.468,0.04-0.656,0.119
			c-0.187,0.081-0.342,0.195-0.468,0.342c-0.125,0.148-0.218,0.327-0.28,0.537c-0.063,0.212-0.093,0.445-0.093,0.703
			c0,0.27,0.029,0.508,0.086,0.715c0.057,0.208,0.145,0.382,0.261,0.521c0.118,0.141,0.266,0.247,0.446,0.321
			c0.179,0.074,0.392,0.11,0.638,0.11c0.249,0,0.467-0.04,0.655-0.12c0.187-0.08,0.342-0.195,0.466-0.344
			c0.125-0.149,0.217-0.329,0.28-0.542c0.061-0.212,0.093-0.451,0.093-0.715c0-0.265-0.029-0.499-0.086-0.704
			C85.771,29.869,85.683,29.697,85.564,29.558"/>
		<path fill="#FFFFFF" d="M91.295,30.6c-0.083,0.028-0.182,0.042-0.297,0.042h-0.425V29.54h0.367c0.086,0,0.156,0.003,0.209,0.008
			c0.053,0.004,0.1,0.013,0.142,0.024c0.135,0.039,0.232,0.103,0.289,0.191c0.057,0.089,0.086,0.197,0.086,0.325
			c0,0.079-0.013,0.153-0.04,0.22c-0.026,0.068-0.067,0.126-0.122,0.176C91.448,30.533,91.379,30.572,91.295,30.6 M92.265,32.202
			l-0.293-0.72c-0.034-0.083-0.067-0.157-0.1-0.222c-0.034-0.067-0.07-0.124-0.108-0.175c-0.038-0.051-0.079-0.094-0.123-0.131
			c-0.044-0.035-0.093-0.066-0.146-0.09c0.096-0.034,0.183-0.074,0.26-0.123c0.078-0.05,0.144-0.107,0.199-0.174
			c0.057-0.067,0.099-0.143,0.128-0.23c0.029-0.086,0.044-0.185,0.044-0.294c0-0.113-0.016-0.217-0.048-0.31
			c-0.033-0.093-0.083-0.176-0.149-0.249c-0.065-0.073-0.147-0.131-0.243-0.18c-0.098-0.047-0.208-0.081-0.336-0.103
			c-0.043-0.005-0.093-0.01-0.148-0.014c-0.054-0.004-0.124-0.006-0.206-0.006h-0.695c-0.039,0-0.076,0.013-0.111,0.039
			c-0.034,0.026-0.051,0.072-0.051,0.138v3.029c0,0.014,0.003,0.026,0.01,0.035c0.006,0.01,0.018,0.018,0.035,0.024
			c0.017,0.006,0.039,0.01,0.067,0.016c0.029,0.004,0.063,0.007,0.106,0.007s0.078-0.003,0.105-0.007
			c0.028-0.005,0.049-0.01,0.065-0.016c0.016-0.006,0.028-0.014,0.035-0.024c0.008-0.01,0.011-0.022,0.011-0.035v-1.392h0.291
			c0.099,0,0.184,0.014,0.255,0.043c0.071,0.03,0.132,0.072,0.184,0.125c0.053,0.053,0.098,0.117,0.136,0.189
			c0.037,0.074,0.074,0.154,0.11,0.242l0.301,0.771c0.007,0.02,0.015,0.037,0.024,0.05c0.01,0.014,0.022,0.024,0.039,0.032
			c0.017,0.008,0.039,0.014,0.067,0.016c0.029,0.004,0.064,0.006,0.108,0.006c0.05,0,0.091-0.002,0.121-0.006
			c0.03-0.003,0.054-0.009,0.071-0.016c0.016-0.006,0.028-0.015,0.033-0.025c0.005-0.01,0.007-0.022,0.007-0.035
			c0-0.013-0.003-0.032-0.01-0.056C92.304,32.305,92.289,32.262,92.265,32.202"/>
		<path fill="#FFFFFF" d="M97.597,30.6c-0.083,0.028-0.182,0.042-0.297,0.042h-0.425V29.54h0.367c0.086,0,0.156,0.003,0.209,0.008
			c0.053,0.004,0.1,0.013,0.142,0.024c0.135,0.039,0.232,0.103,0.289,0.191c0.057,0.089,0.086,0.197,0.086,0.325
			c0,0.079-0.013,0.153-0.04,0.22c-0.026,0.068-0.067,0.126-0.122,0.176C97.75,30.533,97.681,30.572,97.597,30.6 M98.566,32.202
			l-0.293-0.72c-0.034-0.083-0.067-0.157-0.1-0.222c-0.034-0.067-0.07-0.124-0.108-0.175c-0.038-0.051-0.079-0.094-0.123-0.131
			c-0.044-0.035-0.093-0.066-0.146-0.09c0.096-0.034,0.183-0.074,0.26-0.123c0.078-0.05,0.144-0.107,0.2-0.174
			c0.056-0.067,0.099-0.143,0.128-0.23c0.029-0.086,0.043-0.185,0.043-0.294c0-0.113-0.016-0.217-0.048-0.31
			c-0.033-0.093-0.083-0.176-0.149-0.249c-0.065-0.073-0.147-0.131-0.243-0.18c-0.098-0.047-0.208-0.081-0.336-0.103
			c-0.043-0.005-0.093-0.01-0.148-0.014c-0.054-0.004-0.124-0.006-0.206-0.006h-0.695c-0.039,0-0.076,0.013-0.11,0.039
			c-0.035,0.026-0.052,0.072-0.052,0.138v3.029c0,0.014,0.003,0.026,0.01,0.035c0.006,0.01,0.018,0.018,0.035,0.024
			c0.017,0.006,0.039,0.01,0.067,0.016c0.029,0.004,0.064,0.007,0.106,0.007c0.042,0,0.078-0.003,0.105-0.007
			c0.028-0.005,0.049-0.01,0.065-0.016c0.016-0.006,0.029-0.014,0.035-0.024c0.008-0.01,0.011-0.022,0.011-0.035v-1.392h0.291
			c0.099,0,0.184,0.014,0.255,0.043c0.071,0.03,0.132,0.072,0.184,0.125c0.053,0.053,0.098,0.117,0.136,0.189
			c0.037,0.074,0.074,0.154,0.11,0.242l0.301,0.771c0.007,0.02,0.015,0.037,0.024,0.05c0.01,0.014,0.022,0.024,0.039,0.032
			c0.017,0.008,0.039,0.014,0.067,0.016c0.029,0.004,0.064,0.006,0.108,0.006c0.05,0,0.091-0.002,0.121-0.006
			c0.03-0.003,0.054-0.009,0.071-0.016c0.016-0.006,0.028-0.015,0.033-0.025c0.005-0.01,0.008-0.022,0.008-0.035
			c0-0.013-0.004-0.032-0.01-0.056C98.605,32.305,98.59,32.262,98.566,32.202"/>
		<path fill="#FFFFFF" d="M104.966,31.312c-0.034,0.158-0.09,0.298-0.169,0.418c-0.079,0.121-0.183,0.217-0.313,0.287
			c-0.129,0.072-0.289,0.107-0.479,0.107c-0.193,0-0.351-0.033-0.479-0.099c-0.127-0.064-0.228-0.156-0.304-0.272
			c-0.075-0.117-0.13-0.257-0.162-0.419s-0.048-0.339-0.048-0.531c0-0.174,0.017-0.339,0.052-0.497
			c0.034-0.157,0.092-0.294,0.171-0.413c0.08-0.118,0.184-0.213,0.312-0.284c0.128-0.071,0.286-0.106,0.475-0.106
			c0.189,0,0.347,0.033,0.474,0.098c0.129,0.067,0.231,0.157,0.307,0.275c0.077,0.118,0.131,0.255,0.164,0.414
			c0.033,0.159,0.049,0.331,0.049,0.517C105.016,30.986,104.998,31.153,104.966,31.312 M105.124,29.558
			c-0.119-0.139-0.268-0.244-0.447-0.317c-0.179-0.072-0.388-0.108-0.629-0.108c-0.25,0-0.468,0.04-0.656,0.119
			c-0.187,0.081-0.342,0.195-0.468,0.342c-0.124,0.148-0.218,0.327-0.28,0.537c-0.063,0.212-0.093,0.445-0.093,0.703
			c0,0.27,0.029,0.508,0.086,0.715c0.057,0.208,0.145,0.382,0.262,0.521c0.117,0.141,0.265,0.247,0.445,0.321
			c0.179,0.074,0.392,0.11,0.638,0.11c0.249,0,0.467-0.04,0.655-0.12c0.187-0.08,0.342-0.195,0.466-0.344
			c0.125-0.149,0.217-0.329,0.28-0.542c0.062-0.212,0.093-0.451,0.093-0.715c0-0.265-0.029-0.499-0.086-0.704
			C105.331,29.869,105.242,29.697,105.124,29.558"/>
		<path fill="#FFFFFF" d="M113.612,29.196c-0.014-0.012-0.035-0.02-0.064-0.024c-0.029-0.004-0.07-0.006-0.12-0.006
			c-0.049,0-0.089,0.002-0.118,0.005c-0.029,0.003-0.052,0.008-0.067,0.015c-0.016,0.007-0.027,0.016-0.032,0.029
			c-0.004,0.013-0.01,0.028-0.015,0.044l-0.72,2.739h-0.006l-0.751-2.736c-0.005-0.018-0.011-0.034-0.019-0.047
			c-0.008-0.012-0.02-0.022-0.036-0.029c-0.016-0.007-0.039-0.012-0.067-0.015c-0.029-0.003-0.066-0.005-0.113-0.005
			c-0.05,0-0.092,0.002-0.123,0.005c-0.03,0.003-0.054,0.008-0.072,0.015c-0.016,0.007-0.029,0.016-0.037,0.029
			c-0.007,0.013-0.014,0.029-0.018,0.047l-0.698,2.736h-0.003l-0.736-2.741c-0.003-0.018-0.008-0.033-0.014-0.045
			c-0.006-0.011-0.016-0.021-0.033-0.028c-0.016-0.007-0.039-0.011-0.07-0.014c-0.03-0.003-0.071-0.003-0.123-0.003
			c-0.054,0-0.098,0.002-0.13,0.005c-0.031,0.003-0.054,0.01-0.069,0.022c-0.014,0.011-0.021,0.029-0.02,0.05
			c0.001,0.022,0.006,0.053,0.016,0.092l0.865,3.021c0.005,0.023,0.014,0.042,0.027,0.057c0.012,0.015,0.03,0.026,0.054,0.033
			c0.023,0.008,0.054,0.013,0.092,0.016c0.036,0.003,0.083,0.005,0.138,0.005c0.054,0,0.099-0.002,0.132-0.005
			c0.035-0.003,0.064-0.009,0.086-0.016c0.022-0.007,0.039-0.018,0.05-0.033c0.012-0.015,0.02-0.034,0.025-0.057l0.632-2.47h0.005
			l0.686,2.47c0.006,0.023,0.016,0.042,0.028,0.057c0.011,0.015,0.029,0.026,0.053,0.033c0.023,0.008,0.053,0.013,0.09,0.016
			c0.036,0.003,0.08,0.005,0.132,0.005c0.051,0,0.093-0.002,0.128-0.005c0.034-0.003,0.063-0.009,0.087-0.016
			c0.023-0.007,0.042-0.018,0.055-0.033c0.014-0.015,0.023-0.034,0.03-0.057l0.867-3.019c0.008-0.038,0.013-0.069,0.014-0.091
			C113.632,29.224,113.625,29.207,113.612,29.196"/>
	</g>
</g>
</svg>
